<?xml version="1.0" encoding="UTF-8"?>
<svg width="480px" height="416px" viewBox="0 0 480 416" version="1.1" xmlns="http://www.w3.org/2000/svg" xmlns:xlink="http://www.w3.org/1999/xlink">
    <!-- Generator: Sketch 52.1 (67048) - http://www.bohemiancoding.com/sketch -->
    <title>Shape Copy</title>
    <desc>Created with Sketch.</desc>
    <defs>
        <linearGradient x1="-3.56333333%" y1="50%" x2="102.583333%" y2="50%" id="linearGradient-1">
            <stop stop-color="#17181A" offset="0%"></stop>
            <stop stop-color="#145F94" offset="100%"></stop>
        </linearGradient>
    </defs>
    <g id="Page-1" stroke="none" stroke-width="1" fill="none" fill-rule="evenodd">
        <path d="M456,208 L448,208 L448,40 C447.974,17.92 430.08,0.026 408,0 L72,0 C49.92,0.026 32.026,17.92 32,40 L32,160 L24,160 C10.745,160 0,170.745 0,184 L0,392 C0,405.255 10.745,416 24,416 L328,416 C332.418,416 336,412.418 336,408 C335.974,385.92 318.08,368.026 296,368 L272,368 L272,320 L368,320 L368,392 C368,405.255 378.745,416 392,416 L456,416 C469.255,416 480,405.255 480,392 L480,232 C480,218.745 469.255,208 456,208 Z M176,392 C176,396.418 172.418,400 168,400 L24,400 C19.582,400 16,396.418 16,392 L16,384 L176,384 L176,392 Z M176,368 L16,368 L16,184 C16,179.582 19.582,176 24,176 L168,176 C172.418,176 176,179.582 176,184 L176,368 Z M296,384 C306.168,384.012 315.229,390.418 318.632,400 L190.528,400 C191.475,397.438 191.973,394.732 192,392 L192,384 L296,384 Z M192,368 L192,320 L208,320 L208,368 L192,368 Z M224,368 L224,320 L256,320 L256,368 L224,368 Z M368,304 L192,304 L192,256 L368,256 L368,304 Z M368,232 L368,240 L192,240 L192,184 C191.973,180.204 191.034,176.47 189.264,173.112 C189.384,173 189.544,172.968 189.656,172.848 L268.856,93.648 C271.925,90.47 271.838,85.405 268.66,82.336 C265.56,79.342 260.645,79.342 257.544,82.336 L178.344,161.536 C178.152,161.736 178.072,161.992 177.904,162.2 C174.8,160.76 171.421,160.01 168,160 L48,160 L48,40 C48,26.745 58.745,16 72,16 L408,16 C421.255,16 432,26.745 432,40 L432,208 L392,208 C378.745,208 368,218.745 368,232 Z M464,392 C464,396.418 460.418,400 456,400 L392,400 C387.582,400 384,396.418 384,392 L384,384 L464,384 L464,392 Z M464,368 L384,368 L384,232 C384,227.582 387.582,224 392,224 L456,224 C460.418,224 464,227.582 464,232 L464,368 Z M95.592,257.376 C98.715,260.5 98.715,265.564 95.592,268.688 L61.656,302.624 C61.592,302.69 61.527,302.756 61.46,302.82 C58.282,305.89 53.217,305.802 50.148,302.624 C47.078,299.446 47.166,294.381 50.344,291.312 L84.28,257.376 C87.404,254.253 92.468,254.253 95.592,257.376 Z M132.28,257.376 C135.38,254.382 140.295,254.382 143.396,257.376 C146.574,260.446 146.662,265.51 143.592,268.688 L109.656,302.624 C109.592,302.69 109.527,302.756 109.46,302.82 C106.282,305.89 101.217,305.802 98.148,302.624 C95.078,299.446 95.166,294.381 98.344,291.312 L132.28,257.376 Z M306.344,82.344 C309.444,79.35 314.359,79.35 317.46,82.344 C320.638,85.413 320.725,90.478 317.656,93.656 L238.456,172.856 C238.391,172.923 238.326,172.989 238.259,173.053 C235.081,176.122 230.016,176.034 226.947,172.856 C223.878,169.678 223.966,164.613 227.144,161.544 L306.344,82.344 Z M240.16,288 C235.742,288.022 232.142,284.458 232.12,280.04 C232.098,275.622 235.662,272.022 240.08,272 L240.16,272 C244.578,272 248.16,275.582 248.16,280 C248.16,284.418 244.578,288 240.16,288 Z M256,32 C260.418,32 264,35.582 264,40 C264,44.418 260.418,48 256,48 L224,48 C219.582,48 216,44.418 216,40 C216,35.582 219.582,32 224,32 L256,32 Z M429.656,279.032 L407.032,301.656 C403.854,304.726 403.766,309.79 406.836,312.968 C409.906,316.146 414.97,316.234 418.148,313.164 C418.214,313.1 418.28,313.035 418.344,312.968 L440.968,290.344 C444.038,287.166 443.95,282.102 440.772,279.032 C437.672,276.037 432.756,276.037 429.656,279.032 Z" id="Shape-Copy" fill="url(#linearGradient-1)" fill-rule="nonzero"></path>
    </g>
</svg>